<!--?xml version="1.0" standalone="no"?-->
              <svg id="sw-js-blob-svg" viewBox="0 0 100 100" xmlns="http://www.w3.org/2000/svg" version="1.1">
                    <defs> 
                        <linearGradient id="sw-gradient" x1="0" x2="1" y1="1" y2="0">
                            <stop id="stop1" stop-color="rgba(34, 84, 86, 1)" offset="0%"></stop>
                            <stop id="stop2" stop-color="rgba(243, 187, 123, 1)" offset="100%"></stop>
                        </linearGradient>
                    </defs>
                <path fill="url(#sw-gradient)" d="M16.4,-16.1C23.8,-13.3,34.1,-10.6,36.9,-4.9C39.8,0.7,35.3,9.2,30,16.5C24.8,23.7,18.9,29.7,12.5,30.2C6.1,30.7,-0.7,25.7,-9,23.3C-17.3,20.9,-27.1,21.1,-28.1,17.2C-29.1,13.4,-21.3,5.5,-20.2,-4C-19,-13.5,-24.5,-24.6,-22.2,-28.3C-20,-32,-10,-28.2,-2.7,-24.9C4.5,-21.7,9,-18.9,16.4,-16.1Z" width="100%" height="100%" transform="translate(50 50)" style="transition: all 0.3s ease 0s;" stroke-width="0" stroke="url(#sw-gradient)"></path>
              </svg>